# xmcd
# Track frame offsets:
# 150
# 14673
# 49521
# 65619
# 94017
# 123465
# 153888
# 181011
# 196509
# 212832
# 231555
# 250878
# 271176
#
# Disc length: 3976 seconds
# Revision: 0
# Processed by: cddbd v1.5.2PL0 Copyright (c) Steve Scherf et al.
# Submitted via: VisiTrax 2.11.3.279 - For more info visit www.synapsa.com
#
DISCID=ac0f860d
DTITLE=Simply Red - Simplified (2005) - 2014 Expanded Edition (Remixes-Live i
DTITLE=n Cuba) [Disc2-2]
DYEAR=2014
DGENRE=
TTITLE0=Perfect Love (Lazy Radio Mix)
TTITLE1=Perfect Love (Love To Infinty Sunset Mix - Long Version)
TTITLE2=Perfect Love (Love To Infinity Radio Mix)
TTITLE3=Perfect Love (Kurtis Mantronik 12'' Vocal Mix)
TTITLE4=Perfect Love (Motive Hi-Lectro Mix)
TTITLE5=Perfect Love (Roger's Dirty Sanchez Mix Edit)
TTITLE6=Perfect Love (Lee Cabrera's Lower East Side Dub)
TTITLE7=Perfect Love (Live In Cuba)
TTITLE8=Something Got Me Started (Live In Cuba)
TTITLE9=A Song For You (Live In Cuba)
TTITLE10=Stars (Live In Cuba)
TTITLE11=It's Only Love (Live In Cuba)
TTITLE12=Fairground (Live In Cuba)
EXTD=
EXTT0=
EXTT1=
EXTT2=
EXTT3=
EXTT4=
EXTT5=
EXTT6=
EXTT7=
EXTT8=
EXTT9=
EXTT10=
EXTT11=
EXTT12=
PLAYORDER=
